<svg width="1903" height="255" viewBox="0 0 1903 255" fill="none" xmlns="http://www.w3.org/2000/svg">
<path d="M91.7752 251.032H0V0H91.7752V140.362L153.858 69.5062H252.719L178.827 149.81L263.516 251.032H159.257L91.7752 169.379V251.032Z" fill="white"/>
<path d="M355.146 185.237V251.032H259.997V185.237H355.146Z" fill="white"/>
<path d="M531.19 173.091V165.33L470.456 176.127C462.358 177.477 456.622 179.277 453.248 181.526C449.874 183.775 448.187 187.149 448.187 191.648V191.986C448.187 197.159 450.324 201.546 454.598 205.145C459.097 208.744 466.52 210.543 476.867 210.543C493.062 210.543 506.109 206.832 516.006 199.409C526.128 191.761 531.19 182.988 531.19 173.091ZM532.877 226.739C514.432 245.184 486.089 254.406 447.85 254.406H444.138C415.796 254.406 394.651 248.783 380.705 237.536C366.984 226.289 360.123 212.455 360.123 196.035V191.986C360.123 176.24 365.747 164.093 376.994 155.545C388.466 146.773 407.361 141.374 433.678 139.35L521.067 131.589C527.815 130.69 531.19 127.765 531.19 122.817C531.19 120.118 530.402 117.868 528.828 116.069C527.478 114.269 523.767 112.695 517.693 111.345C511.62 109.77 502.96 108.983 491.713 108.983H490.363C481.365 108.983 473.83 109.658 467.757 111.007C461.908 112.132 457.747 113.932 455.273 116.406C453.023 118.88 451.561 120.792 450.886 122.142C450.436 123.267 449.986 125.066 449.537 127.541H364.51V125.516C364.51 119.443 364.959 114.157 365.859 109.658C366.984 105.159 369.796 99.873 374.294 93.7996C378.793 87.7263 384.867 82.7776 392.514 78.9537C400.387 75.1297 411.859 71.8681 426.93 69.1688C442.226 66.2446 460.221 64.7825 480.916 64.7825H499.811C521.405 64.7825 540.075 66.1321 555.82 68.8314C571.566 71.3057 583.488 74.4549 591.586 78.2788C599.684 81.8779 606.094 86.6016 610.818 92.45C615.542 98.0735 618.354 103.135 619.253 107.633C620.378 111.907 620.94 117.081 620.94 123.154V190.299C620.94 195.472 623.527 198.059 628.701 198.059H638.486V251.032H562.231C545.361 251.032 535.576 242.934 532.877 226.739Z" fill="white"/>
<path d="M644.121 251.032V69.5062H735.222V101.56C738.596 98.4109 741.183 96.049 742.982 94.4745C745.007 92.6749 749.168 89.6383 755.466 85.3644C761.989 81.0906 768.288 77.829 774.361 75.5796C780.434 73.1052 788.307 70.8559 797.98 68.8314C807.877 66.582 818.224 65.4573 829.021 65.4573H831.046C847.241 65.4573 861.3 67.7067 873.222 72.2055C885.369 76.4793 894.704 82.2153 901.227 89.4133C907.75 96.3864 912.474 103.697 915.398 111.345C918.547 118.768 920.122 126.416 920.122 134.289V251.032H828.009V164.318C828.009 151.497 824.41 141.374 817.212 133.951C810.239 126.303 799.217 122.479 784.146 122.479C769.075 122.479 757.266 126.528 748.718 134.626C740.17 142.724 735.896 153.409 735.896 166.68V251.032H644.121Z" fill="white"/>
<path d="M1090.66 251.032H1005.85C973.682 251.032 957.599 233.824 957.599 199.409V125.179H922.846V69.5062H957.599V0H1049.6V69.5062H1090.66V125.179H1049.6V178.827C1049.6 184.675 1050.5 188.836 1052.3 191.311C1054.32 193.56 1058.48 194.685 1064.78 194.685H1090.66V251.032Z" fill="white"/>
<path d="M1187.15 69.5062V102.91C1190.53 97.961 1194.69 93.1248 1199.64 88.4011C1204.81 83.4524 1213.24 78.3913 1224.94 73.2177C1236.64 68.0441 1249.35 65.4573 1263.07 65.4573H1267.12C1281.51 65.4573 1293.89 67.8192 1304.23 72.5429C1314.58 77.0417 1322.45 83.34 1327.85 91.4378C1333.25 99.3107 1337.19 107.746 1339.66 116.743C1342.13 125.516 1343.37 135.188 1343.37 145.761V163.981H1254.3V157.57C1254.3 146.548 1251.6 137.663 1246.2 130.915C1241.02 123.941 1232.81 120.455 1221.57 120.455C1211 120.455 1202.67 124.054 1196.6 131.252C1190.75 138.45 1187.83 147.898 1187.83 159.594V251.032H1096.05V69.5062H1187.15Z" fill="white"/>
<path d="M1513.14 173.091V165.33L1452.41 176.127C1444.31 177.477 1438.57 179.277 1435.2 181.526C1431.83 183.775 1430.14 187.149 1430.14 191.648V191.986C1430.14 197.159 1432.28 201.546 1436.55 205.145C1441.05 208.744 1448.47 210.543 1458.82 210.543C1475.01 210.543 1488.06 206.832 1497.96 199.409C1508.08 191.761 1513.14 182.988 1513.14 173.091ZM1514.83 226.739C1496.38 245.184 1468.04 254.406 1429.8 254.406H1426.09C1397.75 254.406 1376.6 248.783 1362.66 237.536C1348.94 226.289 1342.08 212.455 1342.08 196.035V191.986C1342.08 176.24 1347.7 164.093 1358.95 155.545C1370.42 146.773 1389.31 141.374 1415.63 139.35L1503.02 131.589C1509.77 130.69 1513.14 127.765 1513.14 122.817C1513.14 120.118 1512.35 117.868 1510.78 116.069C1509.43 114.269 1505.72 112.695 1499.65 111.345C1493.57 109.77 1484.91 108.983 1473.66 108.983H1472.31C1463.32 108.983 1455.78 109.658 1449.71 111.007C1443.86 112.132 1439.7 113.932 1437.22 116.406C1434.97 118.88 1433.51 120.792 1432.84 122.142C1432.39 123.267 1431.94 125.066 1431.49 127.541H1346.46V125.516C1346.46 119.443 1346.91 114.157 1347.81 109.658C1348.94 105.159 1351.75 99.873 1356.25 93.7996C1360.74 87.7263 1366.82 82.7776 1374.47 78.9537C1382.34 75.1297 1393.81 71.8681 1408.88 69.1688C1424.18 66.2446 1442.17 64.7825 1462.87 64.7825H1481.76C1503.36 64.7825 1522.03 66.1321 1537.77 68.8314C1553.52 71.3057 1565.44 74.4549 1573.54 78.2788C1581.64 81.8779 1588.05 86.6016 1592.77 92.45C1597.49 98.0735 1600.31 103.135 1601.21 107.633C1602.33 111.907 1602.89 117.081 1602.89 123.154V190.299C1602.89 195.472 1605.48 198.059 1610.65 198.059H1620.44V251.032H1544.18C1527.31 251.032 1517.53 242.934 1514.83 226.739Z" fill="white"/>
<path d="M1626.07 251.032V69.5062H1717.17V101.56C1720.55 98.4109 1723.13 96.049 1724.93 94.4745C1726.96 92.6749 1731.12 89.6383 1737.42 85.3644C1743.94 81.0906 1750.24 77.829 1756.31 75.5796C1762.39 73.1052 1770.26 70.8559 1779.93 68.8314C1789.83 66.582 1800.18 65.4573 1810.97 65.4573H1813C1829.19 65.4573 1843.25 67.7067 1855.17 72.2055C1867.32 76.4793 1876.66 82.2153 1883.18 89.4133C1889.7 96.3864 1894.43 103.697 1897.35 111.345C1900.5 118.768 1902.07 126.416 1902.07 134.289V251.032H1809.96V164.318C1809.96 151.497 1806.36 141.374 1799.16 133.951C1792.19 126.303 1781.17 122.479 1766.1 122.479C1751.03 122.479 1739.22 126.528 1730.67 134.626C1722.12 142.724 1717.85 153.409 1717.85 166.68V251.032H1626.07Z" fill="white"/>
</svg>
